<?xml version="1.0" encoding="UTF-8"?>
<svg width="233px" height="30px" viewBox="0 0 233 30" version="1.1" xmlns="http://www.w3.org/2000/svg" xmlns:xlink="http://www.w3.org/1999/xlink">
    <title>logo-full-white</title>
    <g id="Page-1" stroke="none" stroke-width="1" fill="none" fill-rule="evenodd">
        <g id="Artboard" transform="translate(-459.000000, -449.000000)">
            <g id="logo-full-white" transform="translate(458.999680, 449.000000)">
                <path d="M21.2644718,28.6859948 C20.9476409,28.8972154 20.6212091,29.0940346 20.2835762,29.2764524 C20.0707555,29.3772622 19.8563346,29.4700712 19.6371132,29.55968 C18.5170041,27.764305 16.5264102,26.5705887 14.2541888,26.5705887 C11.9819674,26.5705887 9.99137345,27.764305 8.86966416,29.55968 C8.65204296,29.4700712 8.43442176,29.375662 8.22160102,29.2764524 C7.87916766,29.1164368 7.54313492,28.9420198 7.21670312,28.7564017 C2.90748327,26.3049629 -1.13686838e-13,21.6709114 -1.13686838e-13,16.3583938 C-1.13686838e-13,13.4541108 0.87048481,10.7530477 2.36183011,8.50002815 L2.37623151,8.52563064 C3.26111773,10.1001841 4.79566724,11.2586969 6.61984496,11.6363337 C6.09019336,10.377011 5.79576468,8.99127601 5.79576468,7.53833445 C5.79576468,4.59564775 6.99908191,1.93458848 8.94007102,0.016001559 L8.95927289,0 C10.4762207,2.88348093 13.3725029,4.52044042 16.3679947,5.60374597 C20.4723946,7.08549033 23.9367321,8.9880757 25.6761016,12.5580235 L25.669701,12.5708248 C26.4841803,14.2445878 26.9418249,16.124771 26.9418249,18.1121646 C26.9418249,22.5269948 24.6856051,26.4137735 21.2644718,28.6859948" id="Fill-1" fill="#10BCCD"></path>
                <path d="M151.312982,11.2466958 C149.724027,9.77775264 147.520613,9.04328108 144.702738,9.04328108 L144.701138,9.04328108 C143.945864,9.04328108 143.196992,9.09128575 142.454519,9.17289371 C142.212896,9.20009636 141.974472,9.24810103 141.734449,9.28330446 C141.2352,9.35691163 140.737552,9.43691943 140.244704,9.54733019 C139.964677,9.61133642 139.68785,9.69134422 139.409423,9.76495139 C138.959779,9.88656324 138.511735,10.017776 138.066892,10.1697908 C137.780464,10.2690005 137.495636,10.3778111 137.210808,10.4882219 C136.999588,10.57143 136.786767,10.6354362 136.578747,10.7250449 C136.50834,10.7538477 136.453935,10.8050527 136.389928,10.8434565 C136.071497,10.98267 135.746666,11.0978813 135.431435,11.2546965 L135.431435,12.5172195 L135.431435,19.0730583 L135.431435,19.8411331 L135.431435,24.9088268 L135.431435,27.1282431 C135.431435,28.4707739 136.519541,29.5588799 137.862072,29.5588799 C139.206203,29.5588799 140.294309,28.4707739 140.294309,27.1282431 L140.294309,24.9088268 L140.294309,19.8411331 L140.294309,19.0730583 L140.294309,15.4039008 C140.294309,14.400603 141.054383,13.5653217 142.044879,13.44531 C142.078483,13.4421097 142.115286,13.4341089 142.148889,13.4309086 C142.795352,13.3669023 143.425814,13.333299 144.038674,13.333299 C144.041874,13.333299 144.045074,13.3316989 144.049875,13.3316989 C145.104377,13.3316989 145.966861,13.4309086 146.637327,13.6277277 C147.309392,13.8245469 147.794239,14.1221759 148.090268,14.5158143 C148.386297,14.9126529 148.584716,15.2918899 148.683926,15.6535251 C148.781536,16.0167605 148.832741,16.4680045 148.832741,17.0088572 L148.832741,19.0730583 L148.832741,19.8411331 L148.832741,24.9088268 L148.832741,27.1282431 C148.832741,28.4707739 149.920847,29.5588799 151.263377,29.5588799 C152.605908,29.5588799 153.694014,28.4707739 153.694014,27.1282431 L153.694014,24.9088268 L153.694014,19.0730583 L153.694014,17.4216974 C153.694014,14.7750395 152.900337,12.7156389 151.312982,11.2466958" id="Fill-4" fill="#FFFFFF"></path>
                <path d="M60.793283,17.8247766 C60.9244958,16.1174103 61.3197343,14.8788896 61.9901996,14.1140151 C62.6558645,13.3507407 63.5855551,12.9683035 64.7760711,12.9683035 C65.9697874,12.9683035 66.9042784,13.4371492 67.5843447,14.3748405 C68.2644109,15.3125319 68.6692504,16.463044 68.7972628,17.8247766 L60.793283,17.8247766 Z M64.8928824,9.04312106 C61.8109822,9.04312106 59.5595628,9.99521382 58.1418247,11.8993993 C56.7240866,13.8035849 56.0136173,16.3478328 56.0136173,19.5337432 C56.0136173,21.1547011 56.2072362,22.5820401 56.5928738,23.8189607 C56.9801115,25.0558812 57.4713594,26.0239755 58.073018,26.7232436 C58.6730765,27.4225117 59.3883461,27.9985679 60.2236275,28.4530121 C61.0573087,28.9058563 61.860587,29.2034853 62.6382628,29.3458991 C63.4159385,29.4899132 64.2464195,29.5587199 65.1265052,29.5587199 C66.2658162,29.5587199 67.3571225,29.4595102 68.398824,29.2594907 C69.9029706,28.9730628 72.288803,27.5249217 71.0326806,25.6815421 C70.903068,25.4927237 70.7238506,25.3455094 70.5430329,25.2062958 C69.7605567,24.5982366 69.4629277,25.0254782 68.6468482,25.2062958 C67.7395598,25.4095156 66.7698653,25.4591205 65.8449752,25.4591205 C64.4064351,25.4591205 63.2383212,25.1678921 62.3390336,24.5870355 C61.4365457,24.0029786 60.9244958,22.8508663 60.793283,21.1274984 L73.674538,21.1274984 C73.7273432,20.5962467 73.7513455,19.7753667 73.7513455,18.660058 C73.7513455,15.9525942 73.0056729,13.6739722 71.5095271,11.8209917 C70.0133813,9.96801117 67.8067663,9.04312106 64.8928824,9.04312106 L64.8928824,9.04312106 Z" id="Fill-6" fill="#FFFFFF"></path>
                <path d="M119.500603,17.8247766 C119.631816,16.1174103 120.028654,14.8788896 120.697519,14.1140151 C121.363184,13.3507407 122.292875,12.9683035 123.483391,12.9683035 C124.677107,12.9683035 125.613198,13.4371492 126.293265,14.3748405 C126.971731,15.3125319 127.37817,16.463044 127.504583,17.8247766 L119.500603,17.8247766 Z M123.600202,9.04312106 C120.519902,9.04312106 118.268483,9.99521382 116.850745,11.8993993 C115.433007,13.8035849 114.720937,16.3478328 114.720937,19.5337432 C114.720937,21.1547011 114.916156,22.5820401 115.301794,23.8189607 C115.687431,25.0558812 116.178679,26.0239755 116.780338,26.7232436 C117.380396,27.4225117 118.097266,27.9985679 118.932547,28.4530121 C119.764629,28.9058563 120.569507,29.2034853 121.347183,29.3458991 C122.123258,29.4899132 122.953739,29.5587199 123.833825,29.5587199 C124.973136,29.5587199 126.064442,29.4595102 127.106144,29.2594907 C128.61029,28.9730628 130.997723,27.5249217 129.74,25.6815421 C129.611988,25.4927237 129.43117,25.3455094 129.251953,25.2062958 C128.469477,24.5982366 128.170247,25.0254782 127.354168,25.2062958 C126.44688,25.4095156 125.478785,25.4591205 124.552295,25.4591205 C123.113755,25.4591205 121.945641,25.1678921 121.046353,24.5870355 C120.145466,24.0029786 119.631816,22.8508663 119.500603,21.1274984 L132.381858,21.1274984 C132.434663,20.5962467 132.460265,19.7753667 132.460265,18.660058 C132.460265,15.9525942 131.712993,13.6739722 130.216847,11.8209917 C128.720701,9.96801117 126.514086,9.04312106 123.600202,9.04312106 L123.600202,9.04312106 Z" id="Fill-8" fill="#FFFFFF"></path>
                <path d="M88.2780408,10.151389 C86.93551,10.151389 85.8458039,11.2394951 85.8458039,12.5820259 L85.8458039,27.1290432 C85.8458039,28.471574 86.93551,29.55968 88.2780408,29.55968 C89.6205716,29.55968 90.7102778,28.471574 90.7102778,27.1290432 L90.7102778,12.5820259 C90.7102778,11.2394951 89.6205716,10.151389 88.2780408,10.151389" id="Fill-10" fill="#FFFFFF"></path>
                <path d="M88.2780408,2.56152957 C86.9035069,2.56152957 85.7881983,3.67683823 85.7881983,5.05137215 C85.7881983,6.42750623 86.9035069,7.54121473 88.2780408,7.54121473 C89.6525748,7.54121473 90.7678834,6.42750623 90.7678834,5.05137215 C90.7678834,3.67683823 89.6525748,2.56152957 88.2780408,2.56152957" id="Fill-12" fill="#FFFFFF"></path>
                <path d="M78.7982372,2.56152957 C77.4557064,2.56152957 76.3660003,3.64963558 76.3660003,4.99376654 L76.3660003,27.1287231 C76.3660003,28.4712539 77.4557064,29.5593599 78.7982372,29.5593599 C80.140768,29.5593599 81.2304742,28.4712539 81.2304742,27.1287231 L81.2304742,4.99376654 C81.2304742,3.64963558 80.140768,2.56152957 78.7982372,2.56152957" id="Fill-14" fill="#FFFFFF"></path>
                <path d="M110.415238,9.04344109 L110.375234,9.04344109 C109.331932,9.04344109 108.408642,9.7107061 108.08061,10.7012026 L106.522058,15.4232627 L105.782786,17.6650811 L103.486563,24.6209588 L100.764697,16.3673547 L98.8957153,10.7028028 C98.5692835,9.71230626 97.6443934,9.04344109 96.6010917,9.04344109 C94.9065266,9.04344109 93.7384128,10.7412065 94.3448719,12.3237607 L97.7756062,21.2926345 L100.345457,28.0084888 C100.703891,28.9429799 101.599979,29.5590399 102.601676,29.5590399 L104.414653,29.5590399 C105.416351,29.5590399 106.314038,28.9429799 106.670873,28.0084888 L110.330429,18.4459572 L112.673058,12.3237607 C113.277917,10.7412065 112.109803,9.04344109 110.415238,9.04344109" id="Fill-16" fill="#FFFFFF"></path>
                <polygon id="Fill-18" fill="#10BCCD" points="163.19238 29.55952 171.143554 9.04392114 172.673303 9.04392114 164.693326 29.55952"></polygon>
                <polygon id="Fill-20" fill="#10BCCD" points="185.970279 17.5153065 185.970279 9.02167897 187.500028 9.02167897 187.500028 12.5468224 191.105179 12.5468224 191.105179 9.02167897 192.636528 9.02167897 192.636528 17.5153065 191.105179 17.5153065 191.105179 13.9885629 187.500028 13.9885629 187.500028 17.5153065"></polygon>
                <path d="M198.305081,14.0892127 L200.841328,14.0892127 L199.580405,10.756088 L198.305081,14.0892127 Z M195.363994,17.5151465 L198.740323,9.02151896 L200.418887,9.02151896 L203.795216,17.5151465 L202.153456,17.5151465 L201.37578,15.4637466 L197.78183,15.4637466 L197.005754,17.5151465 L195.363994,17.5151465 Z" id="Fill-22" fill="#10BCCD"></path>
                <path d="M208.041229,13.3360193 L209.570978,13.3360193 C210.241444,13.3360193 210.700688,13.2128073 210.943912,12.9663833 C211.188736,12.7183591 211.310348,12.3519234 211.310348,11.8686764 C211.310348,11.3902297 211.188736,11.0301947 210.940712,10.7853708 C210.695888,10.5421471 210.238243,10.4205353 209.570978,10.4205353 L208.041229,10.4205353 L208.041229,13.3360193 Z M206.50988,17.5156265 L206.50988,9.021999 L209.68779,9.021999 C210.694288,9.021999 211.470363,9.26842301 212.019217,9.76127103 C212.56647,10.2557192 212.841697,10.9581876 212.841697,11.8686764 C212.841697,12.7807652 212.56647,13.4832337 212.017617,13.9728814 C211.470363,14.4657294 210.692688,14.7105532 209.68619,14.7105532 L208.041229,14.7105532 L208.041229,17.5156265 L206.50988,17.5156265 Z" id="Fill-24" fill="#10BCCD"></path>
                <path d="M217.205322,13.3360193 L218.735071,13.3360193 C219.405536,13.3360193 219.863181,13.2128073 220.108005,12.9663833 C220.352829,12.7183591 220.474441,12.3519234 220.474441,11.8686764 C220.474441,11.3902297 220.352829,11.0301947 220.104805,10.7853708 C219.858381,10.5421471 219.402336,10.4205353 218.735071,10.4205353 L217.205322,10.4205353 L217.205322,13.3360193 Z M215.673973,17.5156265 L215.673973,9.021999 L218.851883,9.021999 C219.85678,9.021999 220.634456,9.26842301 221.18331,9.76127103 C221.730563,10.2557192 222.00579,10.9581876 222.00579,11.8686764 C222.00579,12.7807652 221.730563,13.4832337 221.18171,13.9728814 C220.634456,14.4657294 219.85518,14.7105532 218.850282,14.7105532 L217.205322,14.7105532 L217.205322,17.5156265 L215.673973,17.5156265 Z" id="Fill-26" fill="#10BCCD"></path>
                <polygon id="Fill-28" fill="#10BCCD" points="223.949819 9.02151896 225.796399 9.02151896 228.047818 12.4714551 230.286437 9.02151896 232.133016 9.02151896 228.812693 13.8715915 228.812693 17.5151465 227.282944 17.5151465 227.282944 13.8715915"></polygon>
                <path d="M177.763239,27.0411946 C177.601624,26.5147433 177.520016,25.9034837 177.520016,25.2074159 C177.520016,24.509748 177.601624,23.8984884 177.763239,23.3736373 C177.924855,22.8455858 178.132875,22.426345 178.3889,22.1127144 C178.643325,21.800684 178.950555,21.5446591 179.31219,21.3478399 C179.672225,21.1526209 180.02426,21.0198079 180.368293,20.9542015 C180.712327,20.886995 181.083563,20.8549919 181.482002,20.8549919 C182.347686,20.8549919 183.20537,21.0214081 184.055052,21.3574408 L184.055052,22.7879802 C183.246974,22.4151439 182.434094,22.2279256 181.618015,22.2279256 C181.237178,22.2279256 180.910746,22.2631291 180.638719,22.3319358 C180.366693,22.3991423 180.101067,22.5319553 179.843442,22.7255741 C179.584217,22.9207931 179.387398,23.2264229 179.252984,23.6408633 C179.118571,24.0553037 179.051365,24.5769545 179.051365,25.2074159 C179.051365,25.8362772 179.118571,26.3595282 179.252984,26.7739686 C179.387398,27.1884089 179.584217,27.4940387 179.843442,27.6876576 C180.101067,27.8828766 180.366693,28.0140894 180.638719,28.0812959 C180.910746,28.1501026 181.237178,28.1853061 181.618015,28.1853061 C182.434094,28.1853061 183.246974,27.999688 184.055052,27.6252515 L184.055052,29.0493903 C183.20537,29.3902235 182.347686,29.55984 181.482002,29.55984 C181.083563,29.55984 180.712327,29.5262367 180.368293,29.4606303 C180.02426,29.3934238 179.672225,29.262211 179.31219,29.0653918 C178.950555,28.8685726 178.643325,28.6125477 178.3889,28.3005173 C178.132875,27.9868867 177.924855,27.5676459 177.763239,27.0411946" id="Fill-30" fill="#1FB7CB"></path>
                <path d="M188.14009,25.2011753 C188.14009,25.8364372 188.204097,26.3644887 188.328909,26.7837295 C188.455321,27.2013702 188.642539,27.507 188.888963,27.7038192 C189.135387,27.9006383 189.388212,28.0350514 189.647437,28.1038581 C189.906662,28.174265 190.213892,28.2094684 190.570727,28.2094684 C190.860355,28.2094684 191.11158,28.1918667 191.3228,28.153463 C191.535621,28.1166594 191.751642,28.0366516 191.975664,27.9150397 C192.199686,27.7934279 192.382104,27.6238114 192.522917,27.4061902 C192.663731,27.1901691 192.782143,26.8957404 192.873351,26.5229041 C192.967761,26.1500678 193.014165,25.7100249 193.014165,25.2011753 C193.014165,24.5723141 192.951759,24.0490631 192.823747,23.6314224 C192.698934,23.2137817 192.510116,22.9065518 192.258892,22.7097326 C192.007667,22.5129134 191.754842,22.3817006 191.500418,22.3160942 C191.245993,22.2488877 190.935563,22.2152844 190.570727,22.2152844 C190.2891,22.2152844 190.041076,22.2344863 189.831455,22.2712899 C189.620235,22.3096936 189.401013,22.3897014 189.173791,22.5145136 C188.948169,22.6377256 188.767351,22.8057419 188.628138,23.0169625 C188.488924,23.2281831 188.373713,23.5162112 188.279304,23.8858472 C188.186495,24.253883 188.14009,24.6923257 188.14009,25.2011753 M186.608741,25.2139766 C186.608741,24.5179088 186.690349,23.9066492 186.851965,23.3817981 C187.013581,22.8553468 187.223201,22.4361059 187.477626,22.1240755 C187.732051,21.810445 188.040881,21.5576203 188.400916,21.3608012 C188.762551,21.163982 189.112985,21.0327692 189.457019,20.9655627 C189.802652,20.8999563 190.173888,20.8679531 190.570727,20.8679531 C190.969166,20.8679531 191.340402,20.8999563 191.682835,20.9655627 C192.028469,21.0327692 192.380503,21.163982 192.740539,21.3608012 C193.102174,21.5576203 193.411004,21.810445 193.670229,22.1240755 C193.929454,22.4361059 194.140675,22.8553468 194.302291,23.3817981 C194.463906,23.9066492 194.543914,24.5179088 194.543914,25.2139766 C194.543914,25.9020436 194.463906,26.511703 194.302291,27.0429548 C194.140675,27.5742065 193.929454,27.9966477 193.670229,28.3038776 C193.411004,28.6143079 193.102174,28.8671325 192.740539,29.0639517 C192.380503,29.262371 192.028469,29.3935838 191.682835,29.4607903 C191.340402,29.5263967 190.969166,29.56 190.570727,29.56 C190.173888,29.56 189.802652,29.5263967 189.457019,29.4607903 C189.112985,29.3935838 188.762551,29.262371 188.400916,29.0639517 C188.040881,28.8671325 187.732051,28.6143079 187.477626,28.3038776 C187.223201,27.9966477 187.013581,27.5742065 186.851965,27.0429548 C186.690349,26.511703 186.608741,25.9020436 186.608741,25.2139766" id="Fill-33" fill="#1FB7CB"></path>
                <path d="M199.162284,28.185146 L200.562421,28.185146 C201.444106,28.185146 202.079368,27.9611242 202.468206,27.5146807 C202.855444,27.0666371 203.049063,26.3353658 203.049063,25.3192668 C203.049063,24.2951671 202.855444,23.5590953 202.468206,23.1126518 C202.079368,22.663008 201.444106,22.4405864 200.562421,22.4405864 L199.162284,22.4405864 L199.162284,28.185146 Z M197.632535,29.55968 L197.632535,21.0660524 L200.564021,21.0660524 C201.879349,21.0660524 202.877846,21.4260875 203.557912,22.1477578 C204.237979,22.8694281 204.578812,23.925531 204.578812,25.3192668 C204.578812,26.7034017 204.239579,27.7563043 203.561113,28.4779746 C202.882647,29.1996449 201.884149,29.55968 200.564021,29.55968 L197.632535,29.55968 Z" id="Fill-36" fill="#10BCCD"></path>
                <polygon id="Fill-38" fill="#10BCCD" points="207.617028 29.55952 207.617028 21.0658924 213.270379 21.0658924 213.270379 22.4404263 209.146777 22.4404263 209.146777 24.592636 212.721525 24.592636 212.721525 26.0343765 209.146777 26.0343765 209.146777 28.184986 213.270379 28.184986 213.270379 29.55952"></polygon>
                <path d="M217.831943,25.1637317 L219.524908,25.1637317 C220.041758,25.1637317 220.448198,25.0709226 220.742627,24.8869047 C221.037055,24.6996865 221.18427,24.3508525 221.18427,23.8356023 C221.18427,23.3139515 221.037055,22.9619172 220.742627,22.7810995 C220.448198,22.5986818 220.041758,22.509073 219.524908,22.509073 L217.831943,22.509073 L217.831943,25.1637317 Z M216.302194,29.5593599 L216.302194,21.0657324 L219.564912,21.0657324 C220.560209,21.0657324 221.333084,21.3009553 221.885138,21.7746015 C222.437192,22.2466475 222.714019,22.9219133 222.714019,23.7987987 C222.714019,25.0933248 222.093158,25.9302064 220.848237,26.3094433 L223.080454,29.5593599 L221.233875,29.5593599 L219.206477,26.5638681 L217.831943,26.5638681 L217.831943,29.5593599 L216.302194,29.5593599 Z" id="Fill-40" fill="#10BCCD"></path>
                <path d="M225.684388,23.3541154 C225.684388,22.5316352 225.972416,21.9107747 226.550073,21.4931341 C227.124529,21.0754934 227.846199,20.8674731 228.713483,20.8674731 C229.476758,20.8674731 230.236832,21.0642923 230.993705,21.4595308 L230.993705,22.9556765 C230.340842,22.5252346 229.639974,22.3092136 228.892701,22.3092136 C228.423855,22.3092136 228.028617,22.3892214 227.702185,22.5524373 C227.377353,22.714053 227.215737,22.9684778 227.215737,23.3173118 C227.215737,23.5989392 227.362952,23.8197607 227.658981,23.9797763 C227.955009,24.1381918 228.315044,24.2726049 228.734285,24.3830156 C229.155126,24.4918262 229.577568,24.6310398 230.003209,24.7958558 C230.42725,24.962272 230.788886,25.2487 231.084914,25.6567397 C231.380943,26.0663796 231.529758,26.5928309 231.529758,27.2392939 C231.529758,27.9225605 231.24493,28.4794147 230.676875,28.913057 C230.108819,29.3434989 229.417552,29.55952 228.601472,29.55952 C227.522967,29.55952 226.588476,29.3210967 225.796399,28.8474506 L225.796399,27.3017 C226.52607,27.845753 227.34215,28.1161793 228.246238,28.1161793 C229.415952,28.1161793 230.000009,27.7913477 230.000009,27.1400842 C230.000009,26.8472557 229.894398,26.6024318 229.683178,26.4072128 C229.471957,26.2119938 229.204731,26.0679798 228.8815,25.9751707 C228.556668,25.8823617 228.211034,25.7719509 227.842999,25.6455386 C227.473362,25.5191263 227.127729,25.3815129 226.804497,25.2310982 C226.481266,25.0822837 226.21404,24.8502611 226.001219,24.5318301 C225.789998,24.2149992 225.684388,23.8213609 225.684388,23.3541154" id="Fill-42" fill="#10BCCD"></path>
                <path d="M48.0483613,23.8776864 C47.4339014,24.9161876 46.3681976,25.4362382 44.843249,25.4362382 C42.4462155,25.4362382 41.2476987,24.7177682 41.2476987,23.2792281 L41.2476987,13.127839 C42.1469863,12.9054174 43.1822872,12.7950066 44.3536013,12.7950066 C45.8513472,12.7950066 46.9938586,13.2430503 47.7827354,14.1391376 C48.5716123,15.0336247 48.9668508,16.6049778 48.9668508,18.8515967 C48.9668508,21.2166271 48.6596209,22.8391852 48.0483613,23.8776864 M51.3798859,11.6364937 C49.7829303,9.90832536 47.501108,9.04264102 44.5296185,9.04264102 C43.5039185,9.04264102 42.4270136,9.14505099 41.302104,9.34827079 L41.302104,3.71092155 C41.302104,2.36999091 40.213998,1.28028474 38.8714672,1.28028474 C37.5273362,1.28028474 36.4392302,2.36999091 36.4392302,3.71092155 L36.4392302,22.8279841 C36.4392302,24.6793645 37.1256971,26.2667191 38.5018312,27.5820473 C39.874765,28.9021759 41.9885709,29.55984 44.843249,29.55984 C45.5041134,29.55984 46.1617775,29.5070348 46.8178414,29.4030247 C47.4723052,29.2974144 48.2435803,29.0237878 49.133267,28.5805446 C50.0213535,28.1373014 50.7830277,27.5628454 51.4182896,26.8571767 C52.0551517,26.1515079 52.6056053,25.1178072 53.0728508,23.7544744 C53.5400964,22.3911415 53.7737191,20.8949958 53.7737191,19.1076216 C53.7737191,15.8561048 52.9752413,13.3662623 51.3798859,11.6364937" id="Fill-44" fill="#FFFFFF"></path>
            </g>
        </g>
    </g>
</svg>